<?xml version="1.0" encoding="UTF-8" standalone="no"?>
<!-- Created with Inkscape (http://www.inkscape.org/) -->

<svg
   xmlns:dc="http://purl.org/dc/elements/1.1/"
   xmlns:cc="http://creativecommons.org/ns#"
   xmlns:rdf="http://www.w3.org/1999/02/22-rdf-syntax-ns#"
   xmlns:svg="http://www.w3.org/2000/svg"
   xmlns="http://www.w3.org/2000/svg"
   xmlns:sodipodi="http://sodipodi.sourceforge.net/DTD/sodipodi-0.dtd"
   xmlns:inkscape="http://www.inkscape.org/namespaces/inkscape"
   width="96"
   height="96"
   id="svg6517"
   version="1.1"
   inkscape:version="0.91 r13725"
   sodipodi:docname="icon.svg">
  <defs
     id="defs6519">
    <linearGradient
       id="Background">
      <stop
         id="stop4178"
         offset="0"
         style="stop-color:#b8b8b8;stop-opacity:1" />
      <stop
         id="stop4180"
         offset="1"
         style="stop-color:#c9c9c9;stop-opacity:1" />
    </linearGradient>
    <filter
       style="color-interpolation-filters:sRGB;"
       inkscape:label="Inner Shadow"
       id="filter1121">
      <feFlood
         flood-opacity="0.59999999999999998"
         flood-color="rgb(0,0,0)"
         result="flood"
         id="feFlood1123" />
      <feComposite
         in="flood"
         in2="SourceGraphic"
         operator="out"
         result="composite1"
         id="feComposite1125" />
      <feGaussianBlur
         in="composite1"
         stdDeviation="1"
         result="blur"
         id="feGaussianBlur1127" />
      <feOffset
         dx="0"
         dy="2"
         result="offset"
         id="feOffset1129" />
      <feComposite
         in="offset"
         in2="SourceGraphic"
         operator="atop"
         result="composite2"
         id="feComposite1131" />
    </filter>
    <filter
       style="color-interpolation-filters:sRGB;"
       inkscape:label="Drop Shadow"
       id="filter950">
      <feFlood
         flood-opacity="0.25"
         flood-color="rgb(0,0,0)"
         result="flood"
         id="feFlood952" />
      <feComposite
         in="flood"
         in2="SourceGraphic"
         operator="in"
         result="composite1"
         id="feComposite954" />
      <feGaussianBlur
         in="composite1"
         stdDeviation="1"
         result="blur"
         id="feGaussianBlur956" />
      <feOffset
         dx="0"
         dy="1"
         result="offset"
         id="feOffset958" />
      <feComposite
         in="SourceGraphic"
         in2="offset"
         operator="over"
         result="composite2"
         id="feComposite960" />
    </filter>
    <clipPath
       clipPathUnits="userSpaceOnUse"
       id="clipPath873">
      <g
         transform="matrix(0,-0.66666667,0.66604479,0,-258.25992,677.00001)"
         id="g875"
         inkscape:label="Layer 1"
         style="fill:#ff00ff;fill-opacity:1;stroke:none;display:inline">
        <path
           style="fill:#ff00ff;fill-opacity:1;stroke:none;display:inline"
           d="m 46.702703,898.22775 50.594594,0 C 138.16216,898.22775 144,904.06497 144,944.92583 l 0,50.73846 c 0,40.86071 -5.83784,46.69791 -46.702703,46.69791 l -50.594594,0 C 5.8378378,1042.3622 0,1036.525 0,995.66429 L 0,944.92583 C 0,904.06497 5.8378378,898.22775 46.702703,898.22775 Z"
           id="path877"
           inkscape:connector-curvature="0"
           sodipodi:nodetypes="sssssssss" />
      </g>
    </clipPath>
    <filter
       inkscape:collect="always"
       id="filter891"
       inkscape:label="Badge Shadow">
      <feGaussianBlur
         inkscape:collect="always"
         stdDeviation="0.71999962"
         id="feGaussianBlur893" />
    </filter>
  </defs>
  <sodipodi:namedview
     id="base"
     pagecolor="#ffffff"
     bordercolor="#666666"
     borderopacity="1.0"
     inkscape:pageopacity="0.0"
     inkscape:pageshadow="2"
     inkscape:zoom="8.1490724"
     inkscape:cx="53.150139"
     inkscape:cy="46.139478"
     inkscape:document-units="px"
     inkscape:current-layer="layer1"
     showgrid="true"
     fit-margin-top="0"
     fit-margin-left="0"
     fit-margin-right="0"
     fit-margin-bottom="0"
     inkscape:window-width="1855"
     inkscape:window-height="1056"
     inkscape:window-x="1431"
     inkscape:window-y="24"
     inkscape:window-maximized="1"
     showborder="true"
     showguides="true"
     inkscape:guide-bbox="true"
     inkscape:showpageshadow="false">
    <inkscape:grid
       type="xygrid"
       id="grid821" />
    <sodipodi:guide
       orientation="1,0"
       position="16,48"
       id="guide823" />
    <sodipodi:guide
       orientation="0,1"
       position="64,80"
       id="guide825" />
    <sodipodi:guide
       orientation="1,0"
       position="80,40"
       id="guide827" />
    <sodipodi:guide
       orientation="0,1"
       position="64,16"
       id="guide829" />
  </sodipodi:namedview>
  <metadata
     id="metadata6522">
    <rdf:RDF>
      <cc:Work
         rdf:about="">
        <dc:format>image/svg+xml</dc:format>
        <dc:type
           rdf:resource="http://purl.org/dc/dcmitype/StillImage" />
        <dc:title />
      </cc:Work>
    </rdf:RDF>
  </metadata>
  <g
     inkscape:label="BACKGROUND"
     inkscape:groupmode="layer"
     id="layer1"
     transform="translate(268,-635.29076)"
     style="display:inline">
    <path
       style="display:inline;fill:#f4f1f0;fill-opacity:1;stroke:none;filter:url(#filter1121)"
       d="m -268,700.15563 0,-33.72973 c 0,-27.24324 3.88785,-31.13513 31.10302,-31.13513 l 33.79408,0 c 27.21507,0 31.1029,3.89189 31.1029,31.13513 l 0,33.72973 c 0,27.24325 -3.27426,31.13514 -30.48933,31.13514 l -34.40765,0 c -27.21517,0 -31.10302,-3.89189 -31.10302,-31.13514 z"
       id="path6455"
       inkscape:connector-curvature="0"
       sodipodi:nodetypes="sssssssss" />
    <g
       id="g3486"
       transform="matrix(0.23237461,0,0,0.26258218,-280.56663,615.70085)">
      <g
         id="api-code-window">
        <g
           id="g3458">
          <path
             id="circle3460"
             style="fill:#f4f1f0"
             sodipodi:type="arc"
             sodipodi:cx="250"
             sodipodi:cy="250"
             sodipodi:rx="204.18651"
             sodipodi:ry="218.63116"
             sodipodi:start="0"
             sodipodi:end="0.0079074984"
             sodipodi:open="true"
             d="m 454.18651,250 a 204.18651,218.63116 0 0 1 -0.006,1.72881" />
          <g
             id="_x34_">
            <path
               id="path3463"
               style="fill:#675f58"
               d="m 337.652,328.624 c -0.564,-0.011 -1.107,-0.065 -1.639,-0.168 -1.129,4.736 -5.415,8.339 -10.46,8.35 l -204.633,0 c -5.881,-0.011 -10.758,-4.883 -10.769,-10.77 l 0,-136.881 226.171,0 0,6.82 c 0.462,-0.076 0.928,-0.133 1.411,-0.133 l 11.502,0 0,-21.872 c -0.011,-13.078 -10.606,-23.668 -23.682,-23.698 l -204.633,0 c -13.08,0.029 -23.676,10.62 -23.698,23.698 l 0,152.067 c 0.022,13.069 10.618,23.671 23.698,23.692 l 204.634,0 c 12.19,-0.022 22.113,-9.267 23.421,-21.115 l -11.279,0.011 -0.044,0 z M 323.036,165.457 c 2.978,0 5.388,2.411 5.388,5.39 0,2.968 -2.409,5.382 -5.388,5.382 -2.974,0 -5.382,-2.414 -5.382,-5.382 0,-2.979 2.408,-5.39 5.382,-5.39 z m -42.317,0.328 26.476,0 c 2.81,0 5.072,2.262 5.072,5.062 0,2.794 -2.263,5.062 -5.072,5.062 l -26.476,0 c -2.8,0 -5.067,-2.268 -5.067,-5.062 -10e-4,-2.8 2.267,-5.062 5.067,-5.062 z"
               inkscape:connector-curvature="0" />
            <g
               id="g3465">
              <path
                 id="path3467"
                 style="fill:#675f58"
                 d="m 351.324,235.867 c -2.35,-0.659 -4.829,-1.037 -7.39,-1.037 -1.601,0 -3.147,0.168 -4.666,0.429 -5.702,0.979 -10.802,3.681 -14.714,7.595 -4.969,4.959 -8.019,11.809 -8.019,19.374 0,7.574 3.05,14.421 8.019,19.374 3.554,3.554 8.073,6.104 13.13,7.286 2.013,0.467 4.091,0.738 6.25,0.738 2.311,0 4.558,-0.32 6.706,-0.863 4.871,-1.226 9.223,-3.722 12.662,-7.161 4.965,-4.953 8.029,-11.8 8.029,-19.374 0,-7.565 -3.064,-14.415 -8.029,-19.374 -3.271,-3.279 -7.388,-5.699 -11.978,-6.987 z m 0,33.399 c -1.867,1.958 -4.481,3.19 -7.39,3.19 -1.692,0 -3.272,-0.45 -4.666,-1.177 -3.288,-1.704 -5.556,-5.1 -5.556,-9.05 0,-3.96 2.268,-7.349 5.556,-9.052 1.395,-0.725 2.974,-1.172 4.666,-1.172 2.908,0 5.522,1.229 7.39,3.182 1.758,1.834 2.843,4.303 2.843,7.042 0,2.729 -1.085,5.209 -2.843,7.037 z"
                 inkscape:connector-curvature="0" />
              <path
                 id="path3469"
                 style="fill:#ff931e"
                 d="m 401.161,254.234 -12.381,-1.473 c -1.172,-5.632 -3.401,-10.881 -6.456,-15.541 l 7.726,-9.804 c 0.554,-0.686 0.499,-1.771 -0.141,-2.398 l -8.763,-8.773 c -0.623,-0.618 -1.703,-0.689 -2.414,-0.138 l -9.793,7.726 c -4.66,-3.044 -9.9,-5.271 -15.538,-6.448 L 351.932,205 c -0.044,-0.442 -0.271,-0.841 -0.607,-1.134 -0.32,-0.282 -0.744,-0.466 -1.194,-0.466 l -10.861,0 -1.535,0 c -0.885,0 -1.692,0.716 -1.807,1.601 l -1.454,12.386 c -5.643,1.177 -10.889,3.404 -15.544,6.448 l -9.809,-7.726 c -0.684,-0.551 -1.764,-0.48 -2.403,0.138 l -8.757,8.773 c -0.635,0.627 -0.705,1.712 -0.141,2.403 l 7.715,9.798 c -3.038,4.66 -5.273,9.909 -6.445,15.541 l -12.381,1.473 c -0.89,0.101 -1.606,0.911 -1.606,1.793 l 0,12.397 c 0,0.89 0.717,1.703 1.606,1.811 l 12.381,1.454 c 1.172,5.643 3.407,10.884 6.445,15.56 l -5.024,6.381 -2.69,3.407 c -0.564,0.705 -0.494,1.779 0.141,2.397 l 6.25,6.261 0.119,0.131 2.388,2.376 c 0.629,0.629 1.72,0.694 2.414,0.141 l 3.206,-2.517 0.147,-0.131 6.445,-5.078 c 3.239,2.122 6.772,3.798 10.515,5.057 0.136,0.044 0.261,0.108 0.396,0.152 1.508,0.488 3.049,0.917 4.633,1.247 l 1.454,12.381 c 0.114,0.885 0.922,1.596 1.807,1.606 l 12.396,-0.011 c 0.879,0.011 1.709,-0.711 1.802,-1.596 l 1.47,-12.381 c 1.568,-0.33 3.109,-0.759 4.628,-1.247 3.885,-1.259 7.564,-3.012 10.91,-5.209 l 6.587,5.198 3.206,2.527 c 0.711,0.554 1.791,0.488 2.414,-0.141 l 2.393,-2.387 6.37,-6.381 c 0.64,-0.618 0.694,-1.692 0.141,-2.397 l -7.726,-9.788 c 3.055,-4.676 5.284,-9.917 6.456,-15.56 l 12.381,-1.454 c 0.868,-0.108 1.616,-0.922 1.616,-1.811 l 0,-12.397 c -0.003,-0.88 -0.751,-1.691 -1.619,-1.792 z m -53.087,40.709 c -1.362,0.174 -2.74,0.293 -4.14,0.293 -4.112,0 -8.019,-0.792 -11.643,-2.159 -12.474,-4.709 -21.354,-16.731 -21.354,-30.849 0,-16.637 12.326,-30.357 28.331,-32.631 1.524,-0.222 3.071,-0.369 4.666,-0.369 2.539,0 5.013,0.317 7.39,0.865 14.653,3.361 25.607,16.46 25.607,32.134 0.001,16.809 -12.586,30.676 -28.857,32.716 z"
                 inkscape:connector-curvature="0" />
            </g>
            <g
               id="g3471">
              <path
                 id="path3473"
                 style="fill:#675f58"
                 d="m 166.873,239.586 -15.256,46.97 13.883,0 2.371,-8.767 15.196,0 2.301,8.767 13.823,0 -15.446,-46.97 -16.872,0 z m 3.624,27.829 c 1.942,-7.335 3.19,-12.25 3.754,-14.743 0.564,-2.496 0.944,-4.289 1.139,-5.371 0.212,1.172 0.656,3.109 1.324,5.816 0.673,2.71 1.248,4.923 1.714,6.627 l 2.019,7.671 -9.95,0 z"
                 inkscape:connector-curvature="0" />
              <path
                 id="path3475"
                 style="fill:#675f58"
                 d="m 223.72,239.778 -16.2,0 0,46.777 12.641,0 0,-15.521 3.559,0 c 5.664,0 10.042,-1.427 13.118,-4.27 3.087,-2.849 4.634,-6.88 4.634,-12.109 0,-4.756 -1.487,-8.423 -4.449,-11.006 -2.962,-2.579 -7.4,-3.871 -13.303,-3.871 z m 3.266,19.359 c -1.107,1.062 -2.626,1.595 -4.52,1.595 l -2.306,0 0,-10.748 3.266,0 c 3.494,0 5.246,1.582 5.246,4.736 0.001,1.878 -0.563,3.353 -1.686,4.417 z"
                 inkscape:connector-curvature="0" />
              <rect
                 id="rect3477"
                 y="239.778"
                 x="252.203"
                 width="12.695"
                 style="fill:#675f58"
                 height="46.777" />
            </g>
          </g>
        </g>
      </g>
      <g
         id="Layer_1" />
    </g>
  </g>
  <g
     inkscape:groupmode="layer"
     id="layer3"
     inkscape:label="PLACE YOUR PICTOGRAM HERE"
     style="display:inline" />
  <g
     inkscape:groupmode="layer"
     id="layer2"
     inkscape:label="BADGE"
     style="display:none"
     sodipodi:insensitive="true">
    <g
       style="display:inline"
       transform="translate(-340.00001,-581)"
       id="g4394"
       clip-path="none">
      <g
         id="g855">
        <g
           inkscape:groupmode="maskhelper"
           id="g870"
           clip-path="url(#clipPath873)"
           style="opacity:0.6;filter:url(#filter891)">
          <path
             transform="matrix(1.4999992,0,0,1.4999992,-29.999795,-237.54282)"
             d="m 264,552.36218 a 12,12 0 0 1 -12,12 12,12 0 0 1 -12,-12 12,12 0 0 1 12,-12 12,12 0 0 1 12,12 z"
             sodipodi:ry="12"
             sodipodi:rx="12"
             sodipodi:cy="552.36218"
             sodipodi:cx="252"
             id="path844"
             style="color:#000000;fill:#000000;fill-opacity:1;fill-rule:nonzero;stroke:none;stroke-width:4;marker:none;visibility:visible;display:inline;overflow:visible;enable-background:accumulate"
             sodipodi:type="arc" />
        </g>
        <g
           id="g862">
          <path
             sodipodi:type="arc"
             style="color:#000000;fill:#f5f5f5;fill-opacity:1;fill-rule:nonzero;stroke:none;stroke-width:4;marker:none;visibility:visible;display:inline;overflow:visible;enable-background:accumulate"
             id="path4398"
             sodipodi:cx="252"
             sodipodi:cy="552.36218"
             sodipodi:rx="12"
             sodipodi:ry="12"
             d="m 264,552.36218 a 12,12 0 0 1 -12,12 12,12 0 0 1 -12,-12 12,12 0 0 1 12,-12 12,12 0 0 1 12,12 z"
             transform="matrix(1.4999992,0,0,1.4999992,-29.999795,-238.54282)" />
          <path
             transform="matrix(1.25,0,0,1.25,33,-100.45273)"
             d="m 264,552.36218 a 12,12 0 0 1 -12,12 12,12 0 0 1 -12,-12 12,12 0 0 1 12,-12 12,12 0 0 1 12,12 z"
             sodipodi:ry="12"
             sodipodi:rx="12"
             sodipodi:cy="552.36218"
             sodipodi:cx="252"
             id="path4400"
             style="color:#000000;fill:#dd4814;fill-opacity:1;fill-rule:nonzero;stroke:none;stroke-width:4;marker:none;visibility:visible;display:inline;overflow:visible;enable-background:accumulate"
             sodipodi:type="arc" />
          <path
             sodipodi:type="star"
             style="color:#000000;fill:#f5f5f5;fill-opacity:1;fill-rule:nonzero;stroke:none;stroke-width:3;marker:none;visibility:visible;display:inline;overflow:visible;enable-background:accumulate"
             id="path4459"
             sodipodi:sides="5"
             sodipodi:cx="666.19574"
             sodipodi:cy="589.50385"
             sodipodi:r1="7.2431178"
             sodipodi:r2="4.3458705"
             sodipodi:arg1="1.0471976"
             sodipodi:arg2="1.6755161"
             inkscape:flatsided="false"
             inkscape:rounded="0.1"
             inkscape:randomized="0"
             d="m 669.8173,595.77657 c -0.39132,0.22593 -3.62645,-1.90343 -4.07583,-1.95066 -0.44938,-0.0472 -4.05653,1.36297 -4.39232,1.06062 -0.3358,-0.30235 0.68963,-4.03715 0.59569,-4.47913 -0.0939,-0.44198 -2.5498,-3.43681 -2.36602,-3.8496 0.18379,-0.41279 4.05267,-0.59166 4.44398,-0.81759 0.39132,-0.22593 2.48067,-3.48704 2.93005,-3.4398 0.44938,0.0472 1.81505,3.67147 2.15084,3.97382 0.3358,0.30236 4.08294,1.2817 4.17689,1.72369 0.0939,0.44198 -2.9309,2.86076 -3.11469,3.27355 -0.18379,0.41279 0.0427,4.27917 -0.34859,4.5051 z"
             transform="matrix(1.511423,-0.16366377,0.16366377,1.511423,-755.37346,-191.93651)" />
        </g>
      </g>
    </g>
  </g>
</svg>
